<?xml version="1.0" encoding="UTF-8" standalone="no"?>
<!DOCTYPE svg PUBLIC "-//W3C//DTD SVG 1.1//EN"
 "http://www.w3.org/Graphics/SVG/1.1/DTD/svg11.dtd">
<!-- Generated by graphviz version 2.47.3 (20210619.1520)
 -->
<!-- Title: dependencies Pages: 1 -->
<svg width="2112pt" height="247pt"
 viewBox="0.00 0.00 2112.00 246.80" xmlns="http://www.w3.org/2000/svg" xmlns:xlink="http://www.w3.org/1999/xlink">
<g id="graph0" class="graph" transform="scale(1 1) rotate(0) translate(4 242.8)">
<title>dependencies</title>
<polygon fill="white" stroke="transparent" points="-4,4 -4,-242.8 2108,-242.8 2108,4 -4,4"/>
<text text-anchor="middle" x="1052" y="-8.2" font-family="sans-serif" font-size="14.00">dependencies</text>
<g id="clust1" class="cluster">
<title>cluster_AppModule</title>
<polygon fill="none" stroke="black" stroke-dasharray="1,5" points="8,-32.8 8,-230.8 2096,-230.8 2096,-32.8 8,-32.8"/>
</g>
<g id="clust16" class="cluster">
<title>cluster_AppModule_imports</title>
<polygon fill="none" stroke="black" points="1944,-40.8 1944,-92.8 2088,-92.8 2088,-40.8 1944,-40.8"/>
</g>
<g id="clust18" class="cluster">
<title>cluster_AppModule_bootstrap</title>
<polygon fill="none" stroke="black" points="1051,-170.8 1051,-222.8 1175,-222.8 1175,-170.8 1051,-170.8"/>
</g>
<g id="clust2" class="cluster">
<title>cluster_AppModule_declarations</title>
<polygon fill="none" stroke="black" points="16,-40.8 16,-92.8 1936,-92.8 1936,-40.8 16,-40.8"/>
</g>
<!-- AlertasComponent -->
<g id="node1" class="node">
<title>AlertasComponent</title>
<polygon fill="#ffffb3" stroke="black" points="1927.75,-84.8 1806.25,-84.8 1806.25,-48.8 1927.75,-48.8 1927.75,-84.8"/>
<text text-anchor="middle" x="1867" y="-62.6" font-family="Times,serif" font-size="14.00">AlertasComponent</text>
</g>
<!-- AppModule -->
<g id="node14" class="node">
<title>AppModule</title>
<polygon fill="#8dd3c7" stroke="black" points="1154.66,-149.8 1151.66,-153.8 1130.66,-153.8 1127.66,-149.8 1071.34,-149.8 1071.34,-113.8 1154.66,-113.8 1154.66,-149.8"/>
<text text-anchor="middle" x="1113" y="-127.6" font-family="Times,serif" font-size="14.00">AppModule</text>
</g>
<!-- AlertasComponent&#45;&gt;AppModule -->
<g id="edge1" class="edge">
<title>AlertasComponent&#45;&gt;AppModule</title>
<path fill="none" stroke="black" d="M1867,-84.84C1867,-106.46 1867,-139.8 1867,-139.8 1867,-139.8 1164.88,-139.8 1164.88,-139.8"/>
<polygon fill="black" stroke="black" points="1164.88,-136.3 1154.88,-139.8 1164.88,-143.3 1164.88,-136.3"/>
</g>
<!-- AppComponent -->
<g id="node2" class="node">
<title>AppComponent</title>
<polygon fill="#ffffb3" stroke="black" points="1787.94,-84.8 1682.06,-84.8 1682.06,-48.8 1787.94,-48.8 1787.94,-84.8"/>
<text text-anchor="middle" x="1735" y="-62.6" font-family="Times,serif" font-size="14.00">AppComponent</text>
</g>
<!-- AppComponent&#45;&gt;AppModule -->
<g id="edge2" class="edge">
<title>AppComponent&#45;&gt;AppModule</title>
<path fill="none" stroke="black" d="M1735,-85.02C1735,-105.17 1735,-134.8 1735,-134.8 1735,-134.8 1164.78,-134.8 1164.78,-134.8"/>
<polygon fill="black" stroke="black" points="1164.78,-131.3 1154.78,-134.8 1164.78,-138.3 1164.78,-131.3"/>
</g>
<!-- CadastroComponent -->
<g id="node3" class="node">
<title>CadastroComponent</title>
<polygon fill="#ffffb3" stroke="black" points="1664.59,-84.8 1533.41,-84.8 1533.41,-48.8 1664.59,-48.8 1664.59,-84.8"/>
<text text-anchor="middle" x="1599" y="-62.6" font-family="Times,serif" font-size="14.00">CadastroComponent</text>
</g>
<!-- CadastroComponent&#45;&gt;AppModule -->
<g id="edge3" class="edge">
<title>CadastroComponent&#45;&gt;AppModule</title>
<path fill="none" stroke="black" d="M1599,-85.02C1599,-103.63 1599,-129.8 1599,-129.8 1599,-129.8 1164.86,-129.8 1164.86,-129.8"/>
<polygon fill="black" stroke="black" points="1164.86,-126.3 1154.86,-129.8 1164.86,-133.3 1164.86,-126.3"/>
</g>
<!-- InicioComponent -->
<g id="node4" class="node">
<title>InicioComponent</title>
<polygon fill="#ffffb3" stroke="black" points="1514.99,-84.8 1401.01,-84.8 1401.01,-48.8 1514.99,-48.8 1514.99,-84.8"/>
<text text-anchor="middle" x="1458" y="-62.6" font-family="Times,serif" font-size="14.00">InicioComponent</text>
</g>
<!-- InicioComponent&#45;&gt;AppModule -->
<g id="edge4" class="edge">
<title>InicioComponent&#45;&gt;AppModule</title>
<path fill="none" stroke="black" d="M1458,-84.83C1458,-101.86 1458,-124.8 1458,-124.8 1458,-124.8 1164.96,-124.8 1164.96,-124.8"/>
<polygon fill="black" stroke="black" points="1164.96,-121.3 1154.96,-124.8 1164.96,-128.3 1164.96,-121.3"/>
</g>
<!-- LoginComponent -->
<g id="node5" class="node">
<title>LoginComponent</title>
<polygon fill="#ffffb3" stroke="black" points="1383.28,-84.8 1268.72,-84.8 1268.72,-48.8 1383.28,-48.8 1383.28,-84.8"/>
<text text-anchor="middle" x="1326" y="-62.6" font-family="Times,serif" font-size="14.00">LoginComponent</text>
</g>
<!-- LoginComponent&#45;&gt;AppModule -->
<g id="edge5" class="edge">
<title>LoginComponent&#45;&gt;AppModule</title>
<path fill="none" stroke="black" d="M1326,-85.04C1326,-100.37 1326,-119.8 1326,-119.8 1326,-119.8 1164.83,-119.8 1164.83,-119.8"/>
<polygon fill="black" stroke="black" points="1164.83,-116.3 1154.83,-119.8 1164.83,-123.3 1164.83,-116.3"/>
</g>
<!-- MenuComponent -->
<g id="node6" class="node">
<title>MenuComponent</title>
<polygon fill="#ffffb3" stroke="black" points="1250.99,-84.8 1137.01,-84.8 1137.01,-48.8 1250.99,-48.8 1250.99,-84.8"/>
<text text-anchor="middle" x="1194" y="-62.6" font-family="Times,serif" font-size="14.00">MenuComponent</text>
</g>
<!-- MenuComponent&#45;&gt;AppModule -->
<g id="edge6" class="edge">
<title>MenuComponent&#45;&gt;AppModule</title>
<path fill="none" stroke="black" d="M1145.92,-84.91C1145.92,-84.91 1145.92,-103.79 1145.92,-103.79"/>
<polygon fill="black" stroke="black" points="1142.42,-103.79 1145.92,-113.79 1149.42,-103.79 1142.42,-103.79"/>
</g>
<!-- PostagemDeleteComponent -->
<g id="node7" class="node">
<title>PostagemDeleteComponent</title>
<polygon fill="#ffffb3" stroke="black" points="1119.3,-84.8 946.7,-84.8 946.7,-48.8 1119.3,-48.8 1119.3,-84.8"/>
<text text-anchor="middle" x="1033" y="-62.6" font-family="Times,serif" font-size="14.00">PostagemDeleteComponent</text>
</g>
<!-- PostagemDeleteComponent&#45;&gt;AppModule -->
<g id="edge7" class="edge">
<title>PostagemDeleteComponent&#45;&gt;AppModule</title>
<path fill="none" stroke="black" d="M1095.16,-84.91C1095.16,-84.91 1095.16,-103.79 1095.16,-103.79"/>
<polygon fill="black" stroke="black" points="1091.66,-103.79 1095.16,-113.79 1098.66,-103.79 1091.66,-103.79"/>
</g>
<!-- PostagemEditComponent -->
<g id="node8" class="node">
<title>PostagemEditComponent</title>
<polygon fill="#ffffb3" stroke="black" points="928.6,-84.8 769.4,-84.8 769.4,-48.8 928.6,-48.8 928.6,-84.8"/>
<text text-anchor="middle" x="849" y="-62.6" font-family="Times,serif" font-size="14.00">PostagemEditComponent</text>
</g>
<!-- PostagemEditComponent&#45;&gt;AppModule -->
<g id="edge8" class="edge">
<title>PostagemEditComponent&#45;&gt;AppModule</title>
<path fill="none" stroke="black" d="M849,-85.04C849,-100.37 849,-119.8 849,-119.8 849,-119.8 1061.17,-119.8 1061.17,-119.8"/>
<polygon fill="black" stroke="black" points="1061.17,-123.3 1071.17,-119.8 1061.17,-116.3 1061.17,-123.3"/>
</g>
<!-- RodapeComponent -->
<g id="node9" class="node">
<title>RodapeComponent</title>
<polygon fill="#ffffb3" stroke="black" points="751.1,-84.8 626.9,-84.8 626.9,-48.8 751.1,-48.8 751.1,-84.8"/>
<text text-anchor="middle" x="689" y="-62.6" font-family="Times,serif" font-size="14.00">RodapeComponent</text>
</g>
<!-- RodapeComponent&#45;&gt;AppModule -->
<g id="edge9" class="edge">
<title>RodapeComponent&#45;&gt;AppModule</title>
<path fill="none" stroke="black" d="M689,-84.83C689,-101.86 689,-124.8 689,-124.8 689,-124.8 1061.18,-124.8 1061.18,-124.8"/>
<polygon fill="black" stroke="black" points="1061.18,-128.3 1071.18,-124.8 1061.18,-121.3 1061.18,-128.3"/>
</g>
<!-- TemaComponent -->
<g id="node10" class="node">
<title>TemaComponent</title>
<polygon fill="#ffffb3" stroke="black" points="608.7,-84.8 495.3,-84.8 495.3,-48.8 608.7,-48.8 608.7,-84.8"/>
<text text-anchor="middle" x="552" y="-62.6" font-family="Times,serif" font-size="14.00">TemaComponent</text>
</g>
<!-- TemaComponent&#45;&gt;AppModule -->
<g id="edge10" class="edge">
<title>TemaComponent&#45;&gt;AppModule</title>
<path fill="none" stroke="black" d="M552,-85.02C552,-103.63 552,-129.8 552,-129.8 552,-129.8 1061.29,-129.8 1061.29,-129.8"/>
<polygon fill="black" stroke="black" points="1061.29,-133.3 1071.29,-129.8 1061.29,-126.3 1061.29,-133.3"/>
</g>
<!-- TemaDeleteComponent -->
<g id="node11" class="node">
<title>TemaDeleteComponent</title>
<polygon fill="#ffffb3" stroke="black" points="477.74,-84.8 328.26,-84.8 328.26,-48.8 477.74,-48.8 477.74,-84.8"/>
<text text-anchor="middle" x="403" y="-62.6" font-family="Times,serif" font-size="14.00">TemaDeleteComponent</text>
</g>
<!-- TemaDeleteComponent&#45;&gt;AppModule -->
<g id="edge11" class="edge">
<title>TemaDeleteComponent&#45;&gt;AppModule</title>
<path fill="none" stroke="black" d="M403,-85.02C403,-105.17 403,-134.8 403,-134.8 403,-134.8 1061.24,-134.8 1061.24,-134.8"/>
<polygon fill="black" stroke="black" points="1061.24,-138.3 1071.24,-134.8 1061.24,-131.3 1061.24,-138.3"/>
</g>
<!-- TemaEditComponent -->
<g id="node12" class="node">
<title>TemaEditComponent</title>
<polygon fill="#ffffb3" stroke="black" points="310.04,-84.8 173.96,-84.8 173.96,-48.8 310.04,-48.8 310.04,-84.8"/>
<text text-anchor="middle" x="242" y="-62.6" font-family="Times,serif" font-size="14.00">TemaEditComponent</text>
</g>
<!-- TemaEditComponent&#45;&gt;AppModule -->
<g id="edge12" class="edge">
<title>TemaEditComponent&#45;&gt;AppModule</title>
<path fill="none" stroke="black" d="M242,-84.84C242,-106.46 242,-139.8 242,-139.8 242,-139.8 1061.28,-139.8 1061.28,-139.8"/>
<polygon fill="black" stroke="black" points="1061.28,-143.3 1071.28,-139.8 1061.28,-136.3 1061.28,-143.3"/>
</g>
<!-- UserEditComponent -->
<g id="node13" class="node">
<title>UserEditComponent</title>
<polygon fill="#ffffb3" stroke="black" points="155.59,-84.8 24.41,-84.8 24.41,-48.8 155.59,-48.8 155.59,-84.8"/>
<text text-anchor="middle" x="90" y="-62.6" font-family="Times,serif" font-size="14.00">UserEditComponent</text>
</g>
<!-- UserEditComponent&#45;&gt;AppModule -->
<g id="edge13" class="edge">
<title>UserEditComponent&#45;&gt;AppModule</title>
<path fill="none" stroke="black" d="M90,-84.89C90,-107.93 90,-144.8 90,-144.8 90,-144.8 1061.31,-144.8 1061.31,-144.8"/>
<polygon fill="black" stroke="black" points="1061.31,-148.3 1071.31,-144.8 1061.31,-141.3 1061.31,-148.3"/>
</g>
<!-- AppComponent  -->
<g id="node16" class="node">
<title>AppComponent </title>
<polygon fill="#80b1d3" stroke="black" points="1167.44,-214.8 1058.56,-214.8 1058.56,-178.8 1167.44,-178.8 1167.44,-214.8"/>
<text text-anchor="middle" x="1113" y="-192.6" font-family="Times,serif" font-size="14.00">AppComponent </text>
</g>
<!-- AppModule&#45;&gt;AppComponent  -->
<g id="edge15" class="edge">
<title>AppModule&#45;&gt;AppComponent </title>
<path fill="none" stroke="black" stroke-dasharray="1,5" d="M1113,-149.91C1113,-149.91 1113,-168.79 1113,-168.79"/>
<polygon fill="black" stroke="black" points="1109.5,-168.79 1113,-178.79 1116.5,-168.79 1109.5,-168.79"/>
</g>
<!-- AppRoutingModule -->
<g id="node15" class="node">
<title>AppRoutingModule</title>
<polygon fill="#8dd3c7" stroke="black" points="2080.27,-84.8 2077.27,-88.8 2056.27,-88.8 2053.27,-84.8 1951.73,-84.8 1951.73,-48.8 2080.27,-48.8 2080.27,-84.8"/>
<text text-anchor="middle" x="2016" y="-62.6" font-family="Times,serif" font-size="14.00">AppRoutingModule</text>
</g>
<!-- AppRoutingModule&#45;&gt;AppModule -->
<g id="edge14" class="edge">
<title>AppRoutingModule&#45;&gt;AppModule</title>
<path fill="none" stroke="black" d="M2016,-84.89C2016,-107.93 2016,-144.8 2016,-144.8 2016,-144.8 1164.74,-144.8 1164.74,-144.8"/>
<polygon fill="black" stroke="black" points="1164.74,-141.3 1154.74,-144.8 1164.74,-148.3 1164.74,-141.3"/>
</g>
</g>
</svg>
